#!OML:ASF H:\Male1\Project 1\Capture day 1\Session 1\Male1.ASF
:FULLY-SPECIFIED
:DEGREES
906
root -24.5046 14.826 -2.2529 2.5152 12.0368 2.64998
lowerback 5.20589 -1.05972 -4.98986
upperback 3.82841 -1.58182 -1.47716
thorax 1.12594 -0.865096 1.33824
lowerneck -11.6528 -1.71222 -2.07641
upperneck 17.7051 -2.96564 5.35892
head 7.47271 -1.05905 1.80596
rclavicle -3.77691e-015 4.17448e-014
rhumerus -44.1494 18.3056 -96.6696
rradius 36.0344
rwrist -23.5303
rhand -19.3866 1.20825
rfingers 7.12502
rthumb 6.93193 -28.6583
lclavicle -3.77691e-015 4.17448e-014
lhumerus -44.5977 -2.55368 80.0375
lradius 35.3803
lwrist 6.46517
lhand -19.8933 12.5841
lfingers 7.12502
lthumb 6.44281 42.4661
rfemur -20.1827 -6.47111 29.816
rtibia 38.7922
rfoot -29.1116 -20.5469
rtoes -9.67325
lfemur -2.41474 3.86924 -33.3882
ltibia 33.6408
lfoot -20.6461 -7.41131
ltoes -24.0034
907
root -24.6151 14.8027 -2.27696 2.39956 12.0354 2.39934
lowerback 5.2307 -1.0374 -5.06734
upperback 3.8444 -1.5561 -1.44918
thorax 1.13052 -0.854424 1.40953
lowerneck -11.5648 -1.68838 -2.16401
upperneck 17.6341 -2.9613 5.60881
head 7.4387 -1.04248 1.90298
rclavicle 8.34896e-015 -1.15295e-014
rhumerus -44.0737 18.3614 -96.75
rradius 36.1731
rwrist -23.5914
rhand -19.3012 1.19755
rfingers 7.12502
rthumb 7.01439 -28.6662
lclavicle 8.34896e-015 -1.15295e-014
lhumerus -44.5282 -2.4954 79.9698
lradius 35.3576
lwrist 6.48602
lhand -19.8792 12.5456
lfingers 7.12502
lthumb 6.45642 42.4272
rfemur -20.7881 -7.64849 30.5834
rtibia 39.4977
rfoot -28.541 -19.8559
rtoes -8.99057
lfemur -1.65033 3.03528 -33.4001
ltibia 31.9967
lfoot -20.5613 -6.00925
ltoes -17.4884
908
root -24.727 14.7814 -2.30891 2.33216 12.0009 2.13366
lowerback 5.15055 -1.04068 -5.18235
upperback 3.91208 -1.55641 -1.4438
thorax 1.24932 -0.860481 1.47611
lowerneck -11.6362 -1.62093 -1.99582
upperneck 17.6561 -2.91117 5.65546
head 7.45522 -1.00174 1.89506
rclavicle -2.24627e-014 -3.73715e-014
rhumerus -43.7257 18.1995 -96.7516
rradius 36.1085
rwrist -23.3041
rhand -19.1286 1.26552
rfingers 7.12502
rthumb 7.18103 -28.5926
lclavicle -2.24627e-014 -3.73715e-014
lhumerus -44.3499 -2.37711 79.8217
lradius 35.2789
lwrist 6.51086
lhand -19.782 12.5241
lfingers 7.12502
lthumb 6.5503 42.4028
rfemur -21.5231 -9.00218 31.4032
rtibia 40.2449
rfoot -28.4441 -18.5239
rtoes -5.31061
lfemur -0.718902 2.47731 -33.3812
ltibia 30.5229
lfoot -20.3664 -4.55684
ltoes -10.0065
909
root -24.8402 14.7642 -2.34668 2.18053 11.9454 2.04703
lowerback 5.22407 -1.02261 -5.51684
upperback 4.02662 -1.54405 -1.46737
thorax 1.33701 -0.864501 1.63743
lowerneck -11.5211 -1.60494 -1.41492
upperneck 17.3972 -2.87824 5.07292
head 7.33265 -1.00659 1.6094
rclavicle 1.65985e-014 -7.15625e-015
rhumerus -43.3486 18.1066 -96.7366
rradius 36.0449
rwrist -23.1407
rhand -19.1046 1.44156
rfingers 7.12502
rthumb 7.20415 -28.4158
lclavicle 1.65985e-014 -7.15625e-015
lhumerus -44.1829 -2.17669 79.7069
lradius 35.2392
lwrist 6.38285
lhand -19.7502 12.5669
lfingers 7.12502
lthumb 6.58097 42.4447
rfemur -22.2237 -10.593 32.0034
rtibia 41.0667
rfoot -26.569 -17.8425
rtoes -9.24469
lfemur 0.137559 1.95419 -33.5679
ltibia 29.2339
lfoot -20.7613 -2.25272
ltoes -7.12441
910
root -24.9509 14.7562 -2.38752 1.90827 11.7782 1.89282
lowerback 5.45131 -0.939702 -5.74605
upperback 4.16158 -1.45218 -1.48269
thorax 1.35137 -0.825713 1.74888
lowerneck -11.601 -1.56591 -1.47093
upperneck 17.3998 -2.86541 5.34224
head 7.35229 -0.978606 1.70771
rclavicle 1.91827e-014 -4.77083e-015
rhumerus -43.0845 18.1505 -96.7539
rradius 36.1231
rwrist -23.151
rhand -19.3262 1.64905
rfingers 7.12502
rthumb 6.99029 -28.2155
lclavicle 1.91827e-014 -4.77083e-015
lhumerus -44.0319 -2.01232 79.6558
lradius 35.2468
lwrist 6.23005
lhand -19.7468 12.6718
lfingers 7.12502
lthumb 6.58424 42.5494
rfemur -22.928 -12.2675 32.6078
rtibia 42.0902
rfoot -25.0441 -16.7069
rtoes -12.033
lfemur 0.72119 1.19903 -33.6495
ltibia 27.8916
lfoot -21.1739 -0.163182
ltoes -2.26576
911
root -25.0569 14.7529 -2.43655 1.66618 11.4895 1.60993
lowerback 5.63783 -0.831566 -5.74759
upperback 4.28845 -1.31596 -1.51573
thorax 1.3687 -0.759753 1.71246
lowerneck -11.5076 -1.5295 -1.49431
upperneck 17.2444 -2.86462 5.66553
head 7.29053 -0.954835 1.81677
rclavicle 1.19271e-014 4.77083e-015
rhumerus -42.6101 17.86 -96.6375
rradius 36.0915
rwrist -23.0564
rhand -19.5635 1.48048
rfingers 7.12502
rthumb 6.76121 -28.3916
lclavicle 1.19271e-014 4.77083e-015
lhumerus -43.8807 -1.88642 79.5578
lradius 35.2794
lwrist 6.13803
lhand -19.7494 12.6275
lfingers 7.12502
lthumb 6.58175 42.5052
rfemur -23.8639 -13.9624 33.305
rtibia 43.3951
rfoot -22.6326 -15.7732
rtoes -18.1855
lfemur 1.51877 0.440887 -33.5971
ltibia 26.4445
lfoot -21.7816 2.30694
ltoes -1.16059
912
root -25.1594 14.7495 -2.48975 1.4551 11.1347 1.55192
lowerback 5.8469 -0.731491 -5.99161
upperback 4.42382 -1.20151 -1.60009
thorax 1.3902 -0.709594 1.75877
lowerneck -11.4702 -1.4496 -1.41406
upperneck 17.1323 -2.80022 5.85422
head 7.24699 -0.904725 1.87065
rclavicle -7.95139e-016 3.97569e-015
rhumerus -41.8922 17.3086 -96.3559
rradius 35.859
rwrist -22.6749
rhand -19.4881 0.903427
rfingers 7.12502
rthumb 6.83395 -28.9663
lclavicle -7.95139e-016 3.97569e-015
lhumerus -43.7727 -1.56967 79.4024
lradius 35.2953
lwrist 6.03198
lhand -19.727 12.4793
lfingers 7.12502
lthumb 6.60341 42.3563
rfemur -25.0122 -15.7696 33.7164
rtibia 45.09
rfoot -20.4194 -14.3393
rtoes -23.2818
lfemur 2.37419 -0.976127 -33.7831
ltibia 24.8627
lfoot -22.275 4.1201
ltoes 2.98969
913
root -25.264 14.7599 -2.5467 1.24969 10.5892 1.16178
lowerback 6.02244 -0.640879 -6.07659
upperback 4.53833 -1.09366 -1.52077
thorax 1.40775 -0.661598 1.8849
lowerneck -11.5371 -1.27931 -1.19108
upperneck 17.1293 -2.58756 5.73625
head 7.24545 -0.798384 1.81537
rclavicle 2.36554e-014 -1.66979e-014
rhumerus -41.2274 17.1248 -96.0955
rradius 35.6164
rwrist -22.1697
rhand -19.1004 0.759359
rfingers 7.12502
rthumb 7.2082 -29.0979
lclavicle 2.36554e-014 -1.66979e-014
lhumerus -43.727 -1.13065 79.3438
lradius 35.2728
lwrist 5.98514
lhand -19.7608 12.4452
lfingers 7.12502
lthumb 6.57076 42.3232
rfemur -26.4466 -17.0647 34.3138
rtibia 47.0922
rfoot -20.454 -11.2554
rtoes -17.9721
lfemur 3.00716 -2.47523 -33.5571
ltibia 23.4931
lfoot -22.7286 6.08723
ltoes 3.38995
914
root -25.361 14.7719 -2.60137 1.0443 9.90665 1.19828
lowerback 6.17766 -0.524509 -6.52465
upperback 4.70343 -0.962933 -1.55982
thorax 1.4946 -0.612008 2.08869
lowerneck -11.6261 -1.09561 -0.939437
upperneck 17.1741 -2.34408 5.50669
head 7.26122 -0.684346 1.72223
rclavicle -9.93923e-015 2.54444e-014
rhumerus -40.6739 17.2743 -95.9177
rradius 35.5501
rwrist -21.992
rhand -19.0295 0.853193
rfingers 7.12502
rthumb 7.27671 -29.0017
lclavicle -9.93923e-015 2.54444e-014
lhumerus -43.6385 -0.96548 79.4687
lradius 35.2223
lwrist 6.23487
lhand -19.7035 12.5287
lfingers 7.12502
lthumb 6.62604 42.405
rfemur -27.8978 -18.0302 34.1354
rtibia 49.381
rfoot -18.9811 -8.21215
rtoes -19.9895
lfemur 3.66359 -3.79686 -33.7095
ltibia 22.2889
lfoot -23.1874 7.56393
ltoes 3.76282
915
root -25.4552 14.7646 -2.66198 0.843812 9.22568 1.18872
lowerback 6.41589 -0.361079 -6.72485
upperback 4.82111 -0.768734 -1.67512
thorax 1.47173 -0.51994 2.07401
lowerneck -11.7293 -0.959117 -0.617145
upperneck 17.0947 -2.19252 5.378
head 7.24434 -0.602687 1.6405
rclavicle -7.35503e-015 -2.22639e-014
rhumerus -40.1911 17.04 -95.753
rradius 35.5518
rwrist -21.8292
rhand -19.0239 0.847575
rfingers 7.12502
rthumb 7.28207 -29.0071
lclavicle -7.35503e-015 -2.22639e-014
lhumerus -43.589 -1.28417 79.6965
lradius 35.2043
lwrist 6.69948
lhand -19.6941 12.5832
lfingers 7.12502
lthumb 6.63513 42.4593
rfemur -29.2717 -18.9626 34.0349
rtibia 51.6477
rfoot -17.4692 -5.84557
rtoes -28.2283
lfemur 4.22267 -4.91114 -33.7507
ltibia 21.213
lfoot -23.548 8.87638
ltoes 4.45644
916
root -25.5491 14.7478 -2.72095 0.700851 8.56314 1.37726
lowerback 6.64914 -0.172063 -7.03121
upperback 4.8856 -0.549143 -1.84964
thorax 1.39524 -0.414256 2.05503
lowerneck -11.7221 -0.842376 -0.364947
upperneck 17.028 -2.06185 5.29092
head 7.21432 -0.533249 1.5823
rclavicle -3.26007e-014 -3.18055e-015
rhumerus -39.7932 16.5139 -95.5065
rradius 35.5137
rwrist -21.5458
rhand -18.0849 1.21797
rfingers 7.12502
rthumb 8.18838 -28.6034
lclavicle -3.26007e-014 -3.18055e-015
lhumerus -43.7019 -1.6417 79.9254
lradius 35.273
lwrist 6.90646
lhand -19.7483 12.6044
lfingers 7.12502
lthumb 6.58283 42.4821
rfemur -30.5353 -19.6186 33.5902
rtibia 53.7666
rfoot -16.4195 -3.93938
rtoes -40.2041
lfemur 4.60486 -5.45619 -33.8603
ltibia 20.3283
lfoot -23.8445 9.95279
ltoes 4.99193
